<svg viewBox="0 0 64 64" fill="none" xmlns="http://www.w3.org/2000/svg">
  <path d="M32 2L2 30h6v32h16V44h16v18h16V30h6L32 2z" fill="#4A90E2"/>
  <path d="M12 30h8v8h-8v-8zM44 30h8v8h-8v-8z" fill="#FFB74D"/>
  <path d="M20 20l2 2-4 4c-1-1-2-2-2-2l4-4zM28 20l2 2-4 4c-1-1-2-2-2-2l4-4z" fill="#D32F2F"/>
  <path d="M36 20l2 2-4 4c-1-1-2-2-2-2l4-4zM44 20l2 2-4 4c-1-1-2-2-2-2l4-4z" fill="#D32F2F"/>
  <path d="M32 36l-4 4h8l-4-4zM12 44l4 4h-8v-4zM52 44l4 4h-8v-4zM24 52l4 4h-8l4-4zM40 52l4 4h-8l4-4z" fill="#8BC34A"/>
  <path d="M32 44l-4 4h8l-4-4z" fill="#FF7043"/>
  <circle cx="10" cy="10" r="3" fill="#FFEB3B"/>
  <circle cx="54" cy="10" r="3" fill="#FFEB3B"/>
  <path d="M22 52l2-2-4-4c-1 1-2 2-2 2l4 4z" fill="#3F51B5"/>
  <path d="M38 52l2-2-4-4c-1 1-2 2-2 2l4 4z" fill="#3F51B5"/>
</svg>